{
  "accessors": [
    {
      "bufferView": 2,
      "componentType": 5126,
      "count": 60918,
      "max": [
        12.368125915527344,
        3.2522199153900146,
        12.234611511230469
      ],
      "min": [
        -1.4428398609161377,
        -10.836710929870605,
        -0.3690757751464844
      ],
      "type": "VEC3"
    },
    {
      "bufferView": 2,
      "byteOffset": 731016,
      "componentType": 5126,
      "count": 60918,
      "max": [
        0.9998759031295776,
        0.9999666213989258,
        0.9998090863227844
      ],
      "min": [
        -0.9997333884239197,
        -0.9999515414237976,
        -0.9998363852500916
      ],
      "type": "VEC3"
    },
    {
      "bufferView": 1,
      "componentType": 5126,
      "count": 60918,
      "max": [
        0.9997912049293518,
        0.999320924282074
      ],
      "min": [
        0.0004888332914561033,
        0.0006188190309330821
      ],
      "type": "VEC2"
    },
    {
      "bufferView": 0,
      "componentType": 5125,
      "count": 107370,
      "type": "SCALAR"
    }
  ],
  "asset": {
    "extras": {
      "author": "Hisqie Furqoni (https://sketchfab.com/hisqiefurqoni)",
      "license": "CC-BY-4.0 (http://creativecommons.org/licenses/by/4.0/)",
      "source": "https://sketchfab.com/3d-models/anubis-3a716d5ea459428597972378667bcb67",
      "title": "ANUBIS"
    },
    "generator": "Sketchfab-12.66.0",
    "version": "2.0"
  },
  "bufferViews": [
    {
      "buffer": 0,
      "byteLength": 429480,
      "name": "floatBufferViews",
      "target": 34963
    },
    {
      "buffer": 0,
      "byteLength": 487344,
      "byteOffset": 429480,
      "byteStride": 8,
      "name": "floatBufferViews",
      "target": 34962
    },
    {
      "buffer": 0,
      "byteLength": 1462032,
      "byteOffset": 916824,
      "byteStride": 12,
      "name": "floatBufferViews",
      "target": 34962
    }
  ],
  "buffers": [
    {
      "byteLength": 2378856,
      "uri": "scene.bin"
    }
  ],
  "images": [
    {
      "uri": "textures/Scene_-_Root_baseColor.png"
    },
    {
      "uri": "textures/Scene_-_Root_metallicRoughness.png"
    }
  ],
  "materials": [
    {
      "doubleSided": true,
      "name": "Scene_-_Root",
      "pbrMetallicRoughness": {
        "baseColorTexture": {
          "index": 0
        },
        "metallicRoughnessTexture": {
          "index": 1
        }
      }
    }
  ],
  "meshes": [
    {
      "name": "( Print 3D ) ANUBIS__0",
      "primitives": [
        {
          "attributes": {
            "NORMAL": 1,
            "POSITION": 0,
            "TEXCOORD_0": 2
          },
          "indices": 3,
          "material": 0,
          "mode": 4
        }
      ]
    }
  ],
  "nodes": [
    {
      "children": [
        1
      ],
      "matrix": [
        0.0015430288622155786,
        0.0,
        0.0,
        0.0,
        0.0,
        3.426212340985787e-19,
        -0.0015430288622155786,
        0.0,
        0.0,
        0.0015430288622155786,
        3.426212340985787e-19,
        0.0,
        0.0,
        0.0,
        0.0,
        1.0
      ],
      "name": "Sketchfab_model"
    },
    {
      "children": [
        2
      ],
      "matrix": [
        1.0,
        0.0,
        0.0,
        0.0,
        0.0,
        0.0,
        1.0,
        0.0,
        0.0,
        -1.0,
        0.0,
        0.0,
        0.0,
        0.0,
        0.0,
        1.0
      ],
      "name": "6aa18de0ab10400c9e7bce09733d0d38.fbx"
    },
    {
      "children": [
        3
      ],
      "name": "RootNode"
    },
    {
      "children": [
        4
      ],
      "matrix": [
        100.0,
        0.0,
        0.0,
        0.0,
        0.0,
        -1.629206793918314e-05,
        -99.99999999999868,
        0.0,
        0.0,
        99.99999999999868,
        -1.629206793918314e-05,
        0.0,
        0.0,
        0.0,
        0.0,
        1.0
      ],
      "name": "( Print 3D ) ANUBIS"
    },
    {
      "mesh": 0,
      "name": "( Print 3D ) ANUBIS__0"
    }
  ],
  "samplers": [
    {
      "magFilter": 9729,
      "minFilter": 9987,
      "wrapS": 10497,
      "wrapT": 10497
    }
  ],
  "scene": 0,
  "scenes": [
    {
      "name": "Sketchfab_Scene",
      "nodes": [
        0
      ]
    }
  ],
  "textures": [
    {
      "sampler": 0,
      "source": 0
    },
    {
      "sampler": 0,
      "source": 1
    }
  ]
}
